# xmcd
#
# Track frame offsets:
#	150
#	16874
#	33770
#	48829
#	62074
#	72791
#	84656
#	95099
#	115901
#	128318
#	143316
#	160578
#	175742
#	191328
#	203975
#	216244
#
# Disc length: 3107 seconds
#
# Revision: 3335580166
# Processed by: cddbd v1.5.2PL0 Copyright (c) Steve Scherf et al.
# Submitted via: EZCDAudioConverter 8.1.0.1
#
DISCID=c80c2110
DTITLE=Various Artist - Beste Deutsche Trucker and Country Musik CD2 (Laserligh
DTITLE=t Digital N 28 160)
DYEAR=2011
DGENRE=Country
TTITLE0=Larry Schuba and Western Union - Larry Schuba and Western Union - Ich Möch
TTITLE0=t' So Gerne Mal Nach Nashville
TTITLE1=Jonny Hill - Jonny Hill - Roseb Für Mama
TTITLE2=Mark Bender - Mark Bender - Ehrlichkeit
TTITLE3=Freddy Quinn - Freddy Quinn - It's Country Time
TTITLE4=Gudrun Lange and Kactus - Gudrun Lange and Kactus - Keine Angst
TTITLE5=Peter Held - Peter Held - Die Freiheit Der Berge
TTITLE6=Jonny Hill - Jonny Hill - König Der Landstrasse
TTITLE7=Gunter Gabriel - Gunter Gabriel - Er Ist Ein Kerl
TTITLE8=Rheinstone Cowboys - Rheinstone Cowboys - Bleib' Noch Hier
TTITLE9=Ulla Norden - Ulla Norden - Du Nimmst Mich So Wie Ich Bin
TTITLE10=Peter Held - Peter Held - Gib Mir Ein Zuhause
TTITLE11=Jan Hayston - Jan Hayston - Du Machst Mir Gute Laune
TTITLE12=Hermann Lamers Meyer - Hermann Lamers Meyer - Lied Für Eva
TTITLE13=Nashville Music Company - Nashville Music Company - Wir Steh'n Im Sta
TTITLE13=u
TTITLE14=Ralf Paulsen and Country Rose - Ralf Paulsen and Country Rose - Doch Dann
TTITLE14=Kamst Du
TTITLE15=Gunter Gabriel - Gunter Gabriel - Komm Unter Meine Decke
EXTD=
EXTT0=
EXTT1=
EXTT2=
EXTT3=
EXTT4=
EXTT5=
EXTT6=
EXTT7=
EXTT8=
EXTT9=
EXTT10=
EXTT11=
EXTT12=
EXTT13=
EXTT14=
EXTT15=
PLAYORDER=
